M48
; DRILL file KiCad 10.0.4 date 2026-06-29T21:24:29
; FORMAT={-:-/ absolute / metric / decimal}
; #@! TF.CreationDate,2026-06-29T21:24:29+01:00
; #@! TF.GenerationSoftware,Kicad,Pcbnew,10.0.4
; #@! TF.FileFunction,Plated,1,2,PTH
FMAT,2
METRIC
; #@! TA.AperFunction,Plated,PTH,ComponentDrill
T1C0.800
; #@! TA.AperFunction,Plated,PTH,ComponentDrill
T2C0.889
; #@! TA.AperFunction,Plated,PTH,ComponentDrill
T3C1.000
; #@! TA.AperFunction,Plated,PTH,ComponentDrill
T4C1.500
; #@! TA.AperFunction,Plated,PTH,ComponentDrill
T5C2.600
%
G90
G05
T1
X154.7Y-96.09
X154.7Y-103.71
X154.8Y-77.39
X154.8Y-85.01
X154.8Y-115.29
X154.8Y-122.91
X173.7Y-96.29
X173.7Y-103.91
X173.8Y-77.99
X173.8Y-85.61
X173.8Y-113.89
X173.8Y-121.51
X192.9Y-78.19
X192.9Y-85.81
X193.0Y-96.59
X193.0Y-104.21
X193.0Y-114.09
X193.0Y-121.71
T2
X157.98Y-52.08
X157.98Y-54.62
X157.98Y-57.16
X157.98Y-59.7
X157.98Y-62.24
X157.98Y-64.78
X157.98Y-67.32
X173.22Y-52.08
X173.22Y-54.62
X173.22Y-57.16
X173.22Y-59.7
X173.22Y-62.24
X173.22Y-64.78
X173.22Y-67.32
T3
X190.929Y-54.334
X190.929Y-56.834
X190.929Y-59.334
X205.429Y-54.334
X205.429Y-59.334
T4
X160.496Y-78.422
X160.496Y-97.472
X160.496Y-116.522
X166.846Y-75.882
X166.846Y-94.932
X166.846Y-113.983
X179.546Y-78.422
X179.546Y-97.472
X179.546Y-116.522
X185.896Y-75.882
X185.896Y-94.932
X185.896Y-113.983
X198.596Y-78.422
X198.596Y-97.472
X198.596Y-116.522
X204.946Y-75.882
X204.946Y-94.932
X204.946Y-113.983
T5
X198.429Y-51.234
X198.429Y-62.434
M30
