%TF.GenerationSoftware,KiCad,Pcbnew,10.0.4*%
%TF.CreationDate,2026-06-29T21:24:16+01:00*%
%TF.ProjectId,rauqaza3x3PCB,72617571-617a-4613-9378-335043422e6b,rev?*%
%TF.SameCoordinates,Original*%
%TF.FileFunction,Soldermask,Top*%
%TF.FilePolarity,Negative*%
%FSLAX46Y46*%
G04 Gerber Fmt 4.6, Leading zero omitted, Abs format (unit mm)*
G04 Created by KiCad (PCBNEW 10.0.4) date 2026-06-29 21:24:16*
%MOMM*%
%LPD*%
G01*
G04 APERTURE LIST*
G04 Aperture macros list*
%AMRoundRect*
0 Rectangle with rounded corners*
0 $1 Rounding radius*
0 $2 $3 $4 $5 $6 $7 $8 $9 X,Y pos of 4 corners*
0 Add a 4 corners polygon primitive as box body*
4,1,4,$2,$3,$4,$5,$6,$7,$8,$9,$2,$3,0*
0 Add four circle primitives for the rounded corners*
1,1,$1+$1,$2,$3*
1,1,$1+$1,$4,$5*
1,1,$1+$1,$6,$7*
1,1,$1+$1,$8,$9*
0 Add four rect primitives between the rounded corners*
20,1,$1+$1,$2,$3,$4,$5,0*
20,1,$1+$1,$4,$5,$6,$7,0*
20,1,$1+$1,$6,$7,$8,$9,0*
20,1,$1+$1,$8,$9,$2,$3,0*%
G04 Aperture macros list end*
%ADD10RoundRect,0.152400X1.063600X0.609600X-1.063600X0.609600X-1.063600X-0.609600X1.063600X-0.609600X0*%
%ADD11C,1.524000*%
%ADD12RoundRect,0.152400X-1.063600X-0.609600X1.063600X-0.609600X1.063600X0.609600X-1.063600X0.609600X0*%
%ADD13C,1.700000*%
%ADD14C,4.000000*%
%ADD15C,2.200000*%
%ADD16RoundRect,0.250000X-0.550000X0.550000X-0.550000X-0.550000X0.550000X-0.550000X0.550000X0.550000X0*%
%ADD17C,1.600000*%
%ADD18RoundRect,0.250000X0.550000X-0.550000X0.550000X0.550000X-0.550000X0.550000X-0.550000X-0.550000X0*%
%ADD19R,2.000000X2.000000*%
%ADD20C,2.000000*%
%ADD21C,3.200000*%
G04 APERTURE END LIST*
D10*
%TO.C,U1*%
X157145000Y-52080000D03*
D11*
X157980000Y-52080000D03*
D10*
X157145000Y-54620000D03*
D11*
X157980000Y-54620000D03*
D10*
X157145000Y-57160000D03*
D11*
X157980000Y-57160000D03*
D10*
X157145000Y-59700000D03*
D11*
X157980000Y-59700000D03*
D10*
X157145000Y-62240000D03*
D11*
X157980000Y-62240000D03*
D10*
X157145000Y-64780000D03*
D11*
X157980000Y-64780000D03*
D10*
X157145000Y-67320000D03*
D11*
X157980000Y-67320000D03*
X173220000Y-67320000D03*
D12*
X174055000Y-67320000D03*
D11*
X173220000Y-64780000D03*
D12*
X174055000Y-64780000D03*
D11*
X173220000Y-62240000D03*
D12*
X174055000Y-62240000D03*
D11*
X173220000Y-59700000D03*
D12*
X174055000Y-59700000D03*
D11*
X173220000Y-57160000D03*
D12*
X174055000Y-57160000D03*
D11*
X173220000Y-54620000D03*
D12*
X174055000Y-54620000D03*
D11*
X173220000Y-52080000D03*
D12*
X174055000Y-52080000D03*
%TD*%
D13*
%TO.C,SW3*%
X159226250Y-119062500D03*
D14*
X164306250Y-119062500D03*
D13*
X169386250Y-119062500D03*
D15*
X166846250Y-113982500D03*
X160496250Y-116522500D03*
%TD*%
D16*
%TO.C,D5*%
X154800000Y-115290000D03*
D17*
X154800000Y-122910000D03*
%TD*%
D16*
%TO.C,D6*%
X173700000Y-96290000D03*
D17*
X173700000Y-103910000D03*
%TD*%
D16*
%TO.C,D9*%
X193000000Y-114090000D03*
D17*
X193000000Y-121710000D03*
%TD*%
D13*
%TO.C,SW9*%
X197326250Y-119062500D03*
D14*
X202406250Y-119062500D03*
D13*
X207486250Y-119062500D03*
D15*
X204946250Y-113982500D03*
X198596250Y-116522500D03*
%TD*%
D13*
%TO.C,SW6*%
X178276250Y-119062500D03*
D14*
X183356250Y-119062500D03*
D13*
X188436250Y-119062500D03*
D15*
X185896250Y-113982500D03*
X179546250Y-116522500D03*
%TD*%
D13*
%TO.C,SW7*%
X197326250Y-80962500D03*
D14*
X202406250Y-80962500D03*
D13*
X207486250Y-80962500D03*
D15*
X204946250Y-75882500D03*
X198596250Y-78422500D03*
%TD*%
D18*
%TO.C,D2*%
X173800000Y-85610000D03*
D17*
X173800000Y-77990000D03*
%TD*%
D13*
%TO.C,SW2*%
X159226250Y-100012500D03*
D14*
X164306250Y-100012500D03*
D13*
X169386250Y-100012500D03*
D15*
X166846250Y-94932500D03*
X160496250Y-97472500D03*
%TD*%
D18*
%TO.C,D8*%
X193000000Y-104210000D03*
D17*
X193000000Y-96590000D03*
%TD*%
D16*
%TO.C,D7*%
X173800000Y-113890000D03*
D17*
X173800000Y-121510000D03*
%TD*%
D18*
%TO.C,D1*%
X154800000Y-85010000D03*
D17*
X154800000Y-77390000D03*
%TD*%
D18*
%TO.C,D3*%
X192900000Y-85810000D03*
D17*
X192900000Y-78190000D03*
%TD*%
D19*
%TO.C,SW10*%
X190928994Y-54333539D03*
D20*
X190928994Y-59333539D03*
X190928994Y-56833539D03*
D21*
X198428994Y-51233539D03*
X198428994Y-62433539D03*
D20*
X205428994Y-59333539D03*
X205428994Y-54333539D03*
%TD*%
D13*
%TO.C,SW5*%
X178276250Y-100012500D03*
D14*
X183356250Y-100012500D03*
D13*
X188436250Y-100012500D03*
D15*
X185896250Y-94932500D03*
X179546250Y-97472500D03*
%TD*%
D13*
%TO.C,SW8*%
X197326250Y-100012500D03*
D14*
X202406250Y-100012500D03*
D13*
X207486250Y-100012500D03*
D15*
X204946250Y-94932500D03*
X198596250Y-97472500D03*
%TD*%
D13*
%TO.C,SW1*%
X159226250Y-80962500D03*
D14*
X164306250Y-80962500D03*
D13*
X169386250Y-80962500D03*
D15*
X166846250Y-75882500D03*
X160496250Y-78422500D03*
%TD*%
D16*
%TO.C,D4*%
X154700000Y-96090000D03*
D17*
X154700000Y-103710000D03*
%TD*%
D13*
%TO.C,SW4*%
X178276250Y-80962500D03*
D14*
X183356250Y-80962500D03*
D13*
X188436250Y-80962500D03*
D15*
X185896250Y-75882500D03*
X179546250Y-78422500D03*
%TD*%
M02*
