%TF.GenerationSoftware,KiCad,Pcbnew,10.0.4*%
%TF.CreationDate,2026-06-29T21:24:16+01:00*%
%TF.ProjectId,rauqaza3x3PCB,72617571-617a-4613-9378-335043422e6b,rev?*%
%TF.SameCoordinates,Original*%
%TF.FileFunction,Legend,Top*%
%TF.FilePolarity,Positive*%
%FSLAX46Y46*%
G04 Gerber Fmt 4.6, Leading zero omitted, Abs format (unit mm)*
G04 Created by KiCad (PCBNEW 10.0.4) date 2026-06-29 21:24:16*
%MOMM*%
%LPD*%
G01*
G04 APERTURE LIST*
%ADD10C,0.101600*%
%ADD11C,0.150000*%
%ADD12C,0.127000*%
%ADD13C,0.100000*%
%ADD14C,0.504000*%
%ADD15C,0.120000*%
G04 APERTURE END LIST*
D10*
X156616190Y-47353479D02*
X156616190Y-47867526D01*
X156616190Y-47867526D02*
X156646428Y-47928002D01*
X156646428Y-47928002D02*
X156676666Y-47958241D01*
X156676666Y-47958241D02*
X156737142Y-47988479D01*
X156737142Y-47988479D02*
X156858095Y-47988479D01*
X156858095Y-47988479D02*
X156918571Y-47958241D01*
X156918571Y-47958241D02*
X156948809Y-47928002D01*
X156948809Y-47928002D02*
X156979047Y-47867526D01*
X156979047Y-47867526D02*
X156979047Y-47353479D01*
X157614047Y-47988479D02*
X157251190Y-47988479D01*
X157432618Y-47988479D02*
X157432618Y-47353479D01*
X157432618Y-47353479D02*
X157372142Y-47444193D01*
X157372142Y-47444193D02*
X157311666Y-47504669D01*
X157311666Y-47504669D02*
X157251190Y-47534907D01*
D11*
X162972917Y-111595700D02*
X163115774Y-111643319D01*
X163115774Y-111643319D02*
X163353869Y-111643319D01*
X163353869Y-111643319D02*
X163449107Y-111595700D01*
X163449107Y-111595700D02*
X163496726Y-111548080D01*
X163496726Y-111548080D02*
X163544345Y-111452842D01*
X163544345Y-111452842D02*
X163544345Y-111357604D01*
X163544345Y-111357604D02*
X163496726Y-111262366D01*
X163496726Y-111262366D02*
X163449107Y-111214747D01*
X163449107Y-111214747D02*
X163353869Y-111167128D01*
X163353869Y-111167128D02*
X163163393Y-111119509D01*
X163163393Y-111119509D02*
X163068155Y-111071890D01*
X163068155Y-111071890D02*
X163020536Y-111024271D01*
X163020536Y-111024271D02*
X162972917Y-110929033D01*
X162972917Y-110929033D02*
X162972917Y-110833795D01*
X162972917Y-110833795D02*
X163020536Y-110738557D01*
X163020536Y-110738557D02*
X163068155Y-110690938D01*
X163068155Y-110690938D02*
X163163393Y-110643319D01*
X163163393Y-110643319D02*
X163401488Y-110643319D01*
X163401488Y-110643319D02*
X163544345Y-110690938D01*
X163877679Y-110643319D02*
X164115774Y-111643319D01*
X164115774Y-111643319D02*
X164306250Y-110929033D01*
X164306250Y-110929033D02*
X164496726Y-111643319D01*
X164496726Y-111643319D02*
X164734822Y-110643319D01*
X165020536Y-110643319D02*
X165639583Y-110643319D01*
X165639583Y-110643319D02*
X165306250Y-111024271D01*
X165306250Y-111024271D02*
X165449107Y-111024271D01*
X165449107Y-111024271D02*
X165544345Y-111071890D01*
X165544345Y-111071890D02*
X165591964Y-111119509D01*
X165591964Y-111119509D02*
X165639583Y-111214747D01*
X165639583Y-111214747D02*
X165639583Y-111452842D01*
X165639583Y-111452842D02*
X165591964Y-111548080D01*
X165591964Y-111548080D02*
X165544345Y-111595700D01*
X165544345Y-111595700D02*
X165449107Y-111643319D01*
X165449107Y-111643319D02*
X165163393Y-111643319D01*
X165163393Y-111643319D02*
X165068155Y-111595700D01*
X165068155Y-111595700D02*
X165020536Y-111548080D01*
X157374819Y-119838094D02*
X156374819Y-119838094D01*
X156374819Y-119838094D02*
X156374819Y-119599999D01*
X156374819Y-119599999D02*
X156422438Y-119457142D01*
X156422438Y-119457142D02*
X156517676Y-119361904D01*
X156517676Y-119361904D02*
X156612914Y-119314285D01*
X156612914Y-119314285D02*
X156803390Y-119266666D01*
X156803390Y-119266666D02*
X156946247Y-119266666D01*
X156946247Y-119266666D02*
X157136723Y-119314285D01*
X157136723Y-119314285D02*
X157231961Y-119361904D01*
X157231961Y-119361904D02*
X157327200Y-119457142D01*
X157327200Y-119457142D02*
X157374819Y-119599999D01*
X157374819Y-119599999D02*
X157374819Y-119838094D01*
X156374819Y-118361904D02*
X156374819Y-118838094D01*
X156374819Y-118838094D02*
X156851009Y-118885713D01*
X156851009Y-118885713D02*
X156803390Y-118838094D01*
X156803390Y-118838094D02*
X156755771Y-118742856D01*
X156755771Y-118742856D02*
X156755771Y-118504761D01*
X156755771Y-118504761D02*
X156803390Y-118409523D01*
X156803390Y-118409523D02*
X156851009Y-118361904D01*
X156851009Y-118361904D02*
X156946247Y-118314285D01*
X156946247Y-118314285D02*
X157184342Y-118314285D01*
X157184342Y-118314285D02*
X157279580Y-118361904D01*
X157279580Y-118361904D02*
X157327200Y-118409523D01*
X157327200Y-118409523D02*
X157374819Y-118504761D01*
X157374819Y-118504761D02*
X157374819Y-118742856D01*
X157374819Y-118742856D02*
X157327200Y-118838094D01*
X157327200Y-118838094D02*
X157279580Y-118885713D01*
X157054819Y-115551904D02*
X156054819Y-115551904D01*
X157054819Y-114980476D02*
X156483390Y-115409047D01*
X156054819Y-114980476D02*
X156626247Y-115551904D01*
X176274819Y-100838094D02*
X175274819Y-100838094D01*
X175274819Y-100838094D02*
X175274819Y-100599999D01*
X175274819Y-100599999D02*
X175322438Y-100457142D01*
X175322438Y-100457142D02*
X175417676Y-100361904D01*
X175417676Y-100361904D02*
X175512914Y-100314285D01*
X175512914Y-100314285D02*
X175703390Y-100266666D01*
X175703390Y-100266666D02*
X175846247Y-100266666D01*
X175846247Y-100266666D02*
X176036723Y-100314285D01*
X176036723Y-100314285D02*
X176131961Y-100361904D01*
X176131961Y-100361904D02*
X176227200Y-100457142D01*
X176227200Y-100457142D02*
X176274819Y-100599999D01*
X176274819Y-100599999D02*
X176274819Y-100838094D01*
X175274819Y-99409523D02*
X175274819Y-99599999D01*
X175274819Y-99599999D02*
X175322438Y-99695237D01*
X175322438Y-99695237D02*
X175370057Y-99742856D01*
X175370057Y-99742856D02*
X175512914Y-99838094D01*
X175512914Y-99838094D02*
X175703390Y-99885713D01*
X175703390Y-99885713D02*
X176084342Y-99885713D01*
X176084342Y-99885713D02*
X176179580Y-99838094D01*
X176179580Y-99838094D02*
X176227200Y-99790475D01*
X176227200Y-99790475D02*
X176274819Y-99695237D01*
X176274819Y-99695237D02*
X176274819Y-99504761D01*
X176274819Y-99504761D02*
X176227200Y-99409523D01*
X176227200Y-99409523D02*
X176179580Y-99361904D01*
X176179580Y-99361904D02*
X176084342Y-99314285D01*
X176084342Y-99314285D02*
X175846247Y-99314285D01*
X175846247Y-99314285D02*
X175751009Y-99361904D01*
X175751009Y-99361904D02*
X175703390Y-99409523D01*
X175703390Y-99409523D02*
X175655771Y-99504761D01*
X175655771Y-99504761D02*
X175655771Y-99695237D01*
X175655771Y-99695237D02*
X175703390Y-99790475D01*
X175703390Y-99790475D02*
X175751009Y-99838094D01*
X175751009Y-99838094D02*
X175846247Y-99885713D01*
X175954819Y-96551904D02*
X174954819Y-96551904D01*
X175954819Y-95980476D02*
X175383390Y-96409047D01*
X174954819Y-95980476D02*
X175526247Y-96551904D01*
X195574819Y-118638094D02*
X194574819Y-118638094D01*
X194574819Y-118638094D02*
X194574819Y-118399999D01*
X194574819Y-118399999D02*
X194622438Y-118257142D01*
X194622438Y-118257142D02*
X194717676Y-118161904D01*
X194717676Y-118161904D02*
X194812914Y-118114285D01*
X194812914Y-118114285D02*
X195003390Y-118066666D01*
X195003390Y-118066666D02*
X195146247Y-118066666D01*
X195146247Y-118066666D02*
X195336723Y-118114285D01*
X195336723Y-118114285D02*
X195431961Y-118161904D01*
X195431961Y-118161904D02*
X195527200Y-118257142D01*
X195527200Y-118257142D02*
X195574819Y-118399999D01*
X195574819Y-118399999D02*
X195574819Y-118638094D01*
X195574819Y-117590475D02*
X195574819Y-117399999D01*
X195574819Y-117399999D02*
X195527200Y-117304761D01*
X195527200Y-117304761D02*
X195479580Y-117257142D01*
X195479580Y-117257142D02*
X195336723Y-117161904D01*
X195336723Y-117161904D02*
X195146247Y-117114285D01*
X195146247Y-117114285D02*
X194765295Y-117114285D01*
X194765295Y-117114285D02*
X194670057Y-117161904D01*
X194670057Y-117161904D02*
X194622438Y-117209523D01*
X194622438Y-117209523D02*
X194574819Y-117304761D01*
X194574819Y-117304761D02*
X194574819Y-117495237D01*
X194574819Y-117495237D02*
X194622438Y-117590475D01*
X194622438Y-117590475D02*
X194670057Y-117638094D01*
X194670057Y-117638094D02*
X194765295Y-117685713D01*
X194765295Y-117685713D02*
X195003390Y-117685713D01*
X195003390Y-117685713D02*
X195098628Y-117638094D01*
X195098628Y-117638094D02*
X195146247Y-117590475D01*
X195146247Y-117590475D02*
X195193866Y-117495237D01*
X195193866Y-117495237D02*
X195193866Y-117304761D01*
X195193866Y-117304761D02*
X195146247Y-117209523D01*
X195146247Y-117209523D02*
X195098628Y-117161904D01*
X195098628Y-117161904D02*
X195003390Y-117114285D01*
X195254819Y-114351904D02*
X194254819Y-114351904D01*
X195254819Y-113780476D02*
X194683390Y-114209047D01*
X194254819Y-113780476D02*
X194826247Y-114351904D01*
X201072917Y-111595700D02*
X201215774Y-111643319D01*
X201215774Y-111643319D02*
X201453869Y-111643319D01*
X201453869Y-111643319D02*
X201549107Y-111595700D01*
X201549107Y-111595700D02*
X201596726Y-111548080D01*
X201596726Y-111548080D02*
X201644345Y-111452842D01*
X201644345Y-111452842D02*
X201644345Y-111357604D01*
X201644345Y-111357604D02*
X201596726Y-111262366D01*
X201596726Y-111262366D02*
X201549107Y-111214747D01*
X201549107Y-111214747D02*
X201453869Y-111167128D01*
X201453869Y-111167128D02*
X201263393Y-111119509D01*
X201263393Y-111119509D02*
X201168155Y-111071890D01*
X201168155Y-111071890D02*
X201120536Y-111024271D01*
X201120536Y-111024271D02*
X201072917Y-110929033D01*
X201072917Y-110929033D02*
X201072917Y-110833795D01*
X201072917Y-110833795D02*
X201120536Y-110738557D01*
X201120536Y-110738557D02*
X201168155Y-110690938D01*
X201168155Y-110690938D02*
X201263393Y-110643319D01*
X201263393Y-110643319D02*
X201501488Y-110643319D01*
X201501488Y-110643319D02*
X201644345Y-110690938D01*
X201977679Y-110643319D02*
X202215774Y-111643319D01*
X202215774Y-111643319D02*
X202406250Y-110929033D01*
X202406250Y-110929033D02*
X202596726Y-111643319D01*
X202596726Y-111643319D02*
X202834822Y-110643319D01*
X203263393Y-111643319D02*
X203453869Y-111643319D01*
X203453869Y-111643319D02*
X203549107Y-111595700D01*
X203549107Y-111595700D02*
X203596726Y-111548080D01*
X203596726Y-111548080D02*
X203691964Y-111405223D01*
X203691964Y-111405223D02*
X203739583Y-111214747D01*
X203739583Y-111214747D02*
X203739583Y-110833795D01*
X203739583Y-110833795D02*
X203691964Y-110738557D01*
X203691964Y-110738557D02*
X203644345Y-110690938D01*
X203644345Y-110690938D02*
X203549107Y-110643319D01*
X203549107Y-110643319D02*
X203358631Y-110643319D01*
X203358631Y-110643319D02*
X203263393Y-110690938D01*
X203263393Y-110690938D02*
X203215774Y-110738557D01*
X203215774Y-110738557D02*
X203168155Y-110833795D01*
X203168155Y-110833795D02*
X203168155Y-111071890D01*
X203168155Y-111071890D02*
X203215774Y-111167128D01*
X203215774Y-111167128D02*
X203263393Y-111214747D01*
X203263393Y-111214747D02*
X203358631Y-111262366D01*
X203358631Y-111262366D02*
X203549107Y-111262366D01*
X203549107Y-111262366D02*
X203644345Y-111214747D01*
X203644345Y-111214747D02*
X203691964Y-111167128D01*
X203691964Y-111167128D02*
X203739583Y-111071890D01*
X182022917Y-111595700D02*
X182165774Y-111643319D01*
X182165774Y-111643319D02*
X182403869Y-111643319D01*
X182403869Y-111643319D02*
X182499107Y-111595700D01*
X182499107Y-111595700D02*
X182546726Y-111548080D01*
X182546726Y-111548080D02*
X182594345Y-111452842D01*
X182594345Y-111452842D02*
X182594345Y-111357604D01*
X182594345Y-111357604D02*
X182546726Y-111262366D01*
X182546726Y-111262366D02*
X182499107Y-111214747D01*
X182499107Y-111214747D02*
X182403869Y-111167128D01*
X182403869Y-111167128D02*
X182213393Y-111119509D01*
X182213393Y-111119509D02*
X182118155Y-111071890D01*
X182118155Y-111071890D02*
X182070536Y-111024271D01*
X182070536Y-111024271D02*
X182022917Y-110929033D01*
X182022917Y-110929033D02*
X182022917Y-110833795D01*
X182022917Y-110833795D02*
X182070536Y-110738557D01*
X182070536Y-110738557D02*
X182118155Y-110690938D01*
X182118155Y-110690938D02*
X182213393Y-110643319D01*
X182213393Y-110643319D02*
X182451488Y-110643319D01*
X182451488Y-110643319D02*
X182594345Y-110690938D01*
X182927679Y-110643319D02*
X183165774Y-111643319D01*
X183165774Y-111643319D02*
X183356250Y-110929033D01*
X183356250Y-110929033D02*
X183546726Y-111643319D01*
X183546726Y-111643319D02*
X183784822Y-110643319D01*
X184594345Y-110643319D02*
X184403869Y-110643319D01*
X184403869Y-110643319D02*
X184308631Y-110690938D01*
X184308631Y-110690938D02*
X184261012Y-110738557D01*
X184261012Y-110738557D02*
X184165774Y-110881414D01*
X184165774Y-110881414D02*
X184118155Y-111071890D01*
X184118155Y-111071890D02*
X184118155Y-111452842D01*
X184118155Y-111452842D02*
X184165774Y-111548080D01*
X184165774Y-111548080D02*
X184213393Y-111595700D01*
X184213393Y-111595700D02*
X184308631Y-111643319D01*
X184308631Y-111643319D02*
X184499107Y-111643319D01*
X184499107Y-111643319D02*
X184594345Y-111595700D01*
X184594345Y-111595700D02*
X184641964Y-111548080D01*
X184641964Y-111548080D02*
X184689583Y-111452842D01*
X184689583Y-111452842D02*
X184689583Y-111214747D01*
X184689583Y-111214747D02*
X184641964Y-111119509D01*
X184641964Y-111119509D02*
X184594345Y-111071890D01*
X184594345Y-111071890D02*
X184499107Y-111024271D01*
X184499107Y-111024271D02*
X184308631Y-111024271D01*
X184308631Y-111024271D02*
X184213393Y-111071890D01*
X184213393Y-111071890D02*
X184165774Y-111119509D01*
X184165774Y-111119509D02*
X184118155Y-111214747D01*
X201072917Y-73495700D02*
X201215774Y-73543319D01*
X201215774Y-73543319D02*
X201453869Y-73543319D01*
X201453869Y-73543319D02*
X201549107Y-73495700D01*
X201549107Y-73495700D02*
X201596726Y-73448080D01*
X201596726Y-73448080D02*
X201644345Y-73352842D01*
X201644345Y-73352842D02*
X201644345Y-73257604D01*
X201644345Y-73257604D02*
X201596726Y-73162366D01*
X201596726Y-73162366D02*
X201549107Y-73114747D01*
X201549107Y-73114747D02*
X201453869Y-73067128D01*
X201453869Y-73067128D02*
X201263393Y-73019509D01*
X201263393Y-73019509D02*
X201168155Y-72971890D01*
X201168155Y-72971890D02*
X201120536Y-72924271D01*
X201120536Y-72924271D02*
X201072917Y-72829033D01*
X201072917Y-72829033D02*
X201072917Y-72733795D01*
X201072917Y-72733795D02*
X201120536Y-72638557D01*
X201120536Y-72638557D02*
X201168155Y-72590938D01*
X201168155Y-72590938D02*
X201263393Y-72543319D01*
X201263393Y-72543319D02*
X201501488Y-72543319D01*
X201501488Y-72543319D02*
X201644345Y-72590938D01*
X201977679Y-72543319D02*
X202215774Y-73543319D01*
X202215774Y-73543319D02*
X202406250Y-72829033D01*
X202406250Y-72829033D02*
X202596726Y-73543319D01*
X202596726Y-73543319D02*
X202834822Y-72543319D01*
X203120536Y-72543319D02*
X203787202Y-72543319D01*
X203787202Y-72543319D02*
X203358631Y-73543319D01*
X172134819Y-82538094D02*
X171134819Y-82538094D01*
X171134819Y-82538094D02*
X171134819Y-82299999D01*
X171134819Y-82299999D02*
X171182438Y-82157142D01*
X171182438Y-82157142D02*
X171277676Y-82061904D01*
X171277676Y-82061904D02*
X171372914Y-82014285D01*
X171372914Y-82014285D02*
X171563390Y-81966666D01*
X171563390Y-81966666D02*
X171706247Y-81966666D01*
X171706247Y-81966666D02*
X171896723Y-82014285D01*
X171896723Y-82014285D02*
X171991961Y-82061904D01*
X171991961Y-82061904D02*
X172087200Y-82157142D01*
X172087200Y-82157142D02*
X172134819Y-82299999D01*
X172134819Y-82299999D02*
X172134819Y-82538094D01*
X171230057Y-81585713D02*
X171182438Y-81538094D01*
X171182438Y-81538094D02*
X171134819Y-81442856D01*
X171134819Y-81442856D02*
X171134819Y-81204761D01*
X171134819Y-81204761D02*
X171182438Y-81109523D01*
X171182438Y-81109523D02*
X171230057Y-81061904D01*
X171230057Y-81061904D02*
X171325295Y-81014285D01*
X171325295Y-81014285D02*
X171420533Y-81014285D01*
X171420533Y-81014285D02*
X171563390Y-81061904D01*
X171563390Y-81061904D02*
X172134819Y-81633332D01*
X172134819Y-81633332D02*
X172134819Y-81014285D01*
X172454819Y-85871904D02*
X171454819Y-85871904D01*
X172454819Y-85300476D02*
X171883390Y-85729047D01*
X171454819Y-85300476D02*
X172026247Y-85871904D01*
X162972917Y-92545700D02*
X163115774Y-92593319D01*
X163115774Y-92593319D02*
X163353869Y-92593319D01*
X163353869Y-92593319D02*
X163449107Y-92545700D01*
X163449107Y-92545700D02*
X163496726Y-92498080D01*
X163496726Y-92498080D02*
X163544345Y-92402842D01*
X163544345Y-92402842D02*
X163544345Y-92307604D01*
X163544345Y-92307604D02*
X163496726Y-92212366D01*
X163496726Y-92212366D02*
X163449107Y-92164747D01*
X163449107Y-92164747D02*
X163353869Y-92117128D01*
X163353869Y-92117128D02*
X163163393Y-92069509D01*
X163163393Y-92069509D02*
X163068155Y-92021890D01*
X163068155Y-92021890D02*
X163020536Y-91974271D01*
X163020536Y-91974271D02*
X162972917Y-91879033D01*
X162972917Y-91879033D02*
X162972917Y-91783795D01*
X162972917Y-91783795D02*
X163020536Y-91688557D01*
X163020536Y-91688557D02*
X163068155Y-91640938D01*
X163068155Y-91640938D02*
X163163393Y-91593319D01*
X163163393Y-91593319D02*
X163401488Y-91593319D01*
X163401488Y-91593319D02*
X163544345Y-91640938D01*
X163877679Y-91593319D02*
X164115774Y-92593319D01*
X164115774Y-92593319D02*
X164306250Y-91879033D01*
X164306250Y-91879033D02*
X164496726Y-92593319D01*
X164496726Y-92593319D02*
X164734822Y-91593319D01*
X165068155Y-91688557D02*
X165115774Y-91640938D01*
X165115774Y-91640938D02*
X165211012Y-91593319D01*
X165211012Y-91593319D02*
X165449107Y-91593319D01*
X165449107Y-91593319D02*
X165544345Y-91640938D01*
X165544345Y-91640938D02*
X165591964Y-91688557D01*
X165591964Y-91688557D02*
X165639583Y-91783795D01*
X165639583Y-91783795D02*
X165639583Y-91879033D01*
X165639583Y-91879033D02*
X165591964Y-92021890D01*
X165591964Y-92021890D02*
X165020536Y-92593319D01*
X165020536Y-92593319D02*
X165639583Y-92593319D01*
X191334819Y-101138094D02*
X190334819Y-101138094D01*
X190334819Y-101138094D02*
X190334819Y-100899999D01*
X190334819Y-100899999D02*
X190382438Y-100757142D01*
X190382438Y-100757142D02*
X190477676Y-100661904D01*
X190477676Y-100661904D02*
X190572914Y-100614285D01*
X190572914Y-100614285D02*
X190763390Y-100566666D01*
X190763390Y-100566666D02*
X190906247Y-100566666D01*
X190906247Y-100566666D02*
X191096723Y-100614285D01*
X191096723Y-100614285D02*
X191191961Y-100661904D01*
X191191961Y-100661904D02*
X191287200Y-100757142D01*
X191287200Y-100757142D02*
X191334819Y-100899999D01*
X191334819Y-100899999D02*
X191334819Y-101138094D01*
X190763390Y-99995237D02*
X190715771Y-100090475D01*
X190715771Y-100090475D02*
X190668152Y-100138094D01*
X190668152Y-100138094D02*
X190572914Y-100185713D01*
X190572914Y-100185713D02*
X190525295Y-100185713D01*
X190525295Y-100185713D02*
X190430057Y-100138094D01*
X190430057Y-100138094D02*
X190382438Y-100090475D01*
X190382438Y-100090475D02*
X190334819Y-99995237D01*
X190334819Y-99995237D02*
X190334819Y-99804761D01*
X190334819Y-99804761D02*
X190382438Y-99709523D01*
X190382438Y-99709523D02*
X190430057Y-99661904D01*
X190430057Y-99661904D02*
X190525295Y-99614285D01*
X190525295Y-99614285D02*
X190572914Y-99614285D01*
X190572914Y-99614285D02*
X190668152Y-99661904D01*
X190668152Y-99661904D02*
X190715771Y-99709523D01*
X190715771Y-99709523D02*
X190763390Y-99804761D01*
X190763390Y-99804761D02*
X190763390Y-99995237D01*
X190763390Y-99995237D02*
X190811009Y-100090475D01*
X190811009Y-100090475D02*
X190858628Y-100138094D01*
X190858628Y-100138094D02*
X190953866Y-100185713D01*
X190953866Y-100185713D02*
X191144342Y-100185713D01*
X191144342Y-100185713D02*
X191239580Y-100138094D01*
X191239580Y-100138094D02*
X191287200Y-100090475D01*
X191287200Y-100090475D02*
X191334819Y-99995237D01*
X191334819Y-99995237D02*
X191334819Y-99804761D01*
X191334819Y-99804761D02*
X191287200Y-99709523D01*
X191287200Y-99709523D02*
X191239580Y-99661904D01*
X191239580Y-99661904D02*
X191144342Y-99614285D01*
X191144342Y-99614285D02*
X190953866Y-99614285D01*
X190953866Y-99614285D02*
X190858628Y-99661904D01*
X190858628Y-99661904D02*
X190811009Y-99709523D01*
X190811009Y-99709523D02*
X190763390Y-99804761D01*
X191654819Y-104471904D02*
X190654819Y-104471904D01*
X191654819Y-103900476D02*
X191083390Y-104329047D01*
X190654819Y-103900476D02*
X191226247Y-104471904D01*
X176374819Y-118438094D02*
X175374819Y-118438094D01*
X175374819Y-118438094D02*
X175374819Y-118199999D01*
X175374819Y-118199999D02*
X175422438Y-118057142D01*
X175422438Y-118057142D02*
X175517676Y-117961904D01*
X175517676Y-117961904D02*
X175612914Y-117914285D01*
X175612914Y-117914285D02*
X175803390Y-117866666D01*
X175803390Y-117866666D02*
X175946247Y-117866666D01*
X175946247Y-117866666D02*
X176136723Y-117914285D01*
X176136723Y-117914285D02*
X176231961Y-117961904D01*
X176231961Y-117961904D02*
X176327200Y-118057142D01*
X176327200Y-118057142D02*
X176374819Y-118199999D01*
X176374819Y-118199999D02*
X176374819Y-118438094D01*
X175374819Y-117533332D02*
X175374819Y-116866666D01*
X175374819Y-116866666D02*
X176374819Y-117295237D01*
X176054819Y-114151904D02*
X175054819Y-114151904D01*
X176054819Y-113580476D02*
X175483390Y-114009047D01*
X175054819Y-113580476D02*
X175626247Y-114151904D01*
X153134819Y-81938094D02*
X152134819Y-81938094D01*
X152134819Y-81938094D02*
X152134819Y-81699999D01*
X152134819Y-81699999D02*
X152182438Y-81557142D01*
X152182438Y-81557142D02*
X152277676Y-81461904D01*
X152277676Y-81461904D02*
X152372914Y-81414285D01*
X152372914Y-81414285D02*
X152563390Y-81366666D01*
X152563390Y-81366666D02*
X152706247Y-81366666D01*
X152706247Y-81366666D02*
X152896723Y-81414285D01*
X152896723Y-81414285D02*
X152991961Y-81461904D01*
X152991961Y-81461904D02*
X153087200Y-81557142D01*
X153087200Y-81557142D02*
X153134819Y-81699999D01*
X153134819Y-81699999D02*
X153134819Y-81938094D01*
X153134819Y-80414285D02*
X153134819Y-80985713D01*
X153134819Y-80699999D02*
X152134819Y-80699999D01*
X152134819Y-80699999D02*
X152277676Y-80795237D01*
X152277676Y-80795237D02*
X152372914Y-80890475D01*
X152372914Y-80890475D02*
X152420533Y-80985713D01*
X153454819Y-85271904D02*
X152454819Y-85271904D01*
X153454819Y-84700476D02*
X152883390Y-85129047D01*
X152454819Y-84700476D02*
X153026247Y-85271904D01*
X191234819Y-82738094D02*
X190234819Y-82738094D01*
X190234819Y-82738094D02*
X190234819Y-82499999D01*
X190234819Y-82499999D02*
X190282438Y-82357142D01*
X190282438Y-82357142D02*
X190377676Y-82261904D01*
X190377676Y-82261904D02*
X190472914Y-82214285D01*
X190472914Y-82214285D02*
X190663390Y-82166666D01*
X190663390Y-82166666D02*
X190806247Y-82166666D01*
X190806247Y-82166666D02*
X190996723Y-82214285D01*
X190996723Y-82214285D02*
X191091961Y-82261904D01*
X191091961Y-82261904D02*
X191187200Y-82357142D01*
X191187200Y-82357142D02*
X191234819Y-82499999D01*
X191234819Y-82499999D02*
X191234819Y-82738094D01*
X190234819Y-81833332D02*
X190234819Y-81214285D01*
X190234819Y-81214285D02*
X190615771Y-81547618D01*
X190615771Y-81547618D02*
X190615771Y-81404761D01*
X190615771Y-81404761D02*
X190663390Y-81309523D01*
X190663390Y-81309523D02*
X190711009Y-81261904D01*
X190711009Y-81261904D02*
X190806247Y-81214285D01*
X190806247Y-81214285D02*
X191044342Y-81214285D01*
X191044342Y-81214285D02*
X191139580Y-81261904D01*
X191139580Y-81261904D02*
X191187200Y-81309523D01*
X191187200Y-81309523D02*
X191234819Y-81404761D01*
X191234819Y-81404761D02*
X191234819Y-81690475D01*
X191234819Y-81690475D02*
X191187200Y-81785713D01*
X191187200Y-81785713D02*
X191139580Y-81833332D01*
X191554819Y-86071904D02*
X190554819Y-86071904D01*
X191554819Y-85500476D02*
X190983390Y-85929047D01*
X190554819Y-85500476D02*
X191126247Y-86071904D01*
X191919470Y-50040739D02*
X192062327Y-50088358D01*
X192062327Y-50088358D02*
X192300422Y-50088358D01*
X192300422Y-50088358D02*
X192395660Y-50040739D01*
X192395660Y-50040739D02*
X192443279Y-49993119D01*
X192443279Y-49993119D02*
X192490898Y-49897881D01*
X192490898Y-49897881D02*
X192490898Y-49802643D01*
X192490898Y-49802643D02*
X192443279Y-49707405D01*
X192443279Y-49707405D02*
X192395660Y-49659786D01*
X192395660Y-49659786D02*
X192300422Y-49612167D01*
X192300422Y-49612167D02*
X192109946Y-49564548D01*
X192109946Y-49564548D02*
X192014708Y-49516929D01*
X192014708Y-49516929D02*
X191967089Y-49469310D01*
X191967089Y-49469310D02*
X191919470Y-49374072D01*
X191919470Y-49374072D02*
X191919470Y-49278834D01*
X191919470Y-49278834D02*
X191967089Y-49183596D01*
X191967089Y-49183596D02*
X192014708Y-49135977D01*
X192014708Y-49135977D02*
X192109946Y-49088358D01*
X192109946Y-49088358D02*
X192348041Y-49088358D01*
X192348041Y-49088358D02*
X192490898Y-49135977D01*
X192824232Y-49088358D02*
X193062327Y-50088358D01*
X193062327Y-50088358D02*
X193252803Y-49374072D01*
X193252803Y-49374072D02*
X193443279Y-50088358D01*
X193443279Y-50088358D02*
X193681375Y-49088358D01*
X194586136Y-50088358D02*
X194014708Y-50088358D01*
X194300422Y-50088358D02*
X194300422Y-49088358D01*
X194300422Y-49088358D02*
X194205184Y-49231215D01*
X194205184Y-49231215D02*
X194109946Y-49326453D01*
X194109946Y-49326453D02*
X194014708Y-49374072D01*
X195205184Y-49088358D02*
X195300422Y-49088358D01*
X195300422Y-49088358D02*
X195395660Y-49135977D01*
X195395660Y-49135977D02*
X195443279Y-49183596D01*
X195443279Y-49183596D02*
X195490898Y-49278834D01*
X195490898Y-49278834D02*
X195538517Y-49469310D01*
X195538517Y-49469310D02*
X195538517Y-49707405D01*
X195538517Y-49707405D02*
X195490898Y-49897881D01*
X195490898Y-49897881D02*
X195443279Y-49993119D01*
X195443279Y-49993119D02*
X195395660Y-50040739D01*
X195395660Y-50040739D02*
X195300422Y-50088358D01*
X195300422Y-50088358D02*
X195205184Y-50088358D01*
X195205184Y-50088358D02*
X195109946Y-50040739D01*
X195109946Y-50040739D02*
X195062327Y-49993119D01*
X195062327Y-49993119D02*
X195014708Y-49897881D01*
X195014708Y-49897881D02*
X194967089Y-49707405D01*
X194967089Y-49707405D02*
X194967089Y-49469310D01*
X194967089Y-49469310D02*
X195014708Y-49278834D01*
X195014708Y-49278834D02*
X195062327Y-49183596D01*
X195062327Y-49183596D02*
X195109946Y-49135977D01*
X195109946Y-49135977D02*
X195205184Y-49088358D01*
X182022917Y-92545700D02*
X182165774Y-92593319D01*
X182165774Y-92593319D02*
X182403869Y-92593319D01*
X182403869Y-92593319D02*
X182499107Y-92545700D01*
X182499107Y-92545700D02*
X182546726Y-92498080D01*
X182546726Y-92498080D02*
X182594345Y-92402842D01*
X182594345Y-92402842D02*
X182594345Y-92307604D01*
X182594345Y-92307604D02*
X182546726Y-92212366D01*
X182546726Y-92212366D02*
X182499107Y-92164747D01*
X182499107Y-92164747D02*
X182403869Y-92117128D01*
X182403869Y-92117128D02*
X182213393Y-92069509D01*
X182213393Y-92069509D02*
X182118155Y-92021890D01*
X182118155Y-92021890D02*
X182070536Y-91974271D01*
X182070536Y-91974271D02*
X182022917Y-91879033D01*
X182022917Y-91879033D02*
X182022917Y-91783795D01*
X182022917Y-91783795D02*
X182070536Y-91688557D01*
X182070536Y-91688557D02*
X182118155Y-91640938D01*
X182118155Y-91640938D02*
X182213393Y-91593319D01*
X182213393Y-91593319D02*
X182451488Y-91593319D01*
X182451488Y-91593319D02*
X182594345Y-91640938D01*
X182927679Y-91593319D02*
X183165774Y-92593319D01*
X183165774Y-92593319D02*
X183356250Y-91879033D01*
X183356250Y-91879033D02*
X183546726Y-92593319D01*
X183546726Y-92593319D02*
X183784822Y-91593319D01*
X184641964Y-91593319D02*
X184165774Y-91593319D01*
X184165774Y-91593319D02*
X184118155Y-92069509D01*
X184118155Y-92069509D02*
X184165774Y-92021890D01*
X184165774Y-92021890D02*
X184261012Y-91974271D01*
X184261012Y-91974271D02*
X184499107Y-91974271D01*
X184499107Y-91974271D02*
X184594345Y-92021890D01*
X184594345Y-92021890D02*
X184641964Y-92069509D01*
X184641964Y-92069509D02*
X184689583Y-92164747D01*
X184689583Y-92164747D02*
X184689583Y-92402842D01*
X184689583Y-92402842D02*
X184641964Y-92498080D01*
X184641964Y-92498080D02*
X184594345Y-92545700D01*
X184594345Y-92545700D02*
X184499107Y-92593319D01*
X184499107Y-92593319D02*
X184261012Y-92593319D01*
X184261012Y-92593319D02*
X184165774Y-92545700D01*
X184165774Y-92545700D02*
X184118155Y-92498080D01*
X201072917Y-92545700D02*
X201215774Y-92593319D01*
X201215774Y-92593319D02*
X201453869Y-92593319D01*
X201453869Y-92593319D02*
X201549107Y-92545700D01*
X201549107Y-92545700D02*
X201596726Y-92498080D01*
X201596726Y-92498080D02*
X201644345Y-92402842D01*
X201644345Y-92402842D02*
X201644345Y-92307604D01*
X201644345Y-92307604D02*
X201596726Y-92212366D01*
X201596726Y-92212366D02*
X201549107Y-92164747D01*
X201549107Y-92164747D02*
X201453869Y-92117128D01*
X201453869Y-92117128D02*
X201263393Y-92069509D01*
X201263393Y-92069509D02*
X201168155Y-92021890D01*
X201168155Y-92021890D02*
X201120536Y-91974271D01*
X201120536Y-91974271D02*
X201072917Y-91879033D01*
X201072917Y-91879033D02*
X201072917Y-91783795D01*
X201072917Y-91783795D02*
X201120536Y-91688557D01*
X201120536Y-91688557D02*
X201168155Y-91640938D01*
X201168155Y-91640938D02*
X201263393Y-91593319D01*
X201263393Y-91593319D02*
X201501488Y-91593319D01*
X201501488Y-91593319D02*
X201644345Y-91640938D01*
X201977679Y-91593319D02*
X202215774Y-92593319D01*
X202215774Y-92593319D02*
X202406250Y-91879033D01*
X202406250Y-91879033D02*
X202596726Y-92593319D01*
X202596726Y-92593319D02*
X202834822Y-91593319D01*
X203358631Y-92021890D02*
X203263393Y-91974271D01*
X203263393Y-91974271D02*
X203215774Y-91926652D01*
X203215774Y-91926652D02*
X203168155Y-91831414D01*
X203168155Y-91831414D02*
X203168155Y-91783795D01*
X203168155Y-91783795D02*
X203215774Y-91688557D01*
X203215774Y-91688557D02*
X203263393Y-91640938D01*
X203263393Y-91640938D02*
X203358631Y-91593319D01*
X203358631Y-91593319D02*
X203549107Y-91593319D01*
X203549107Y-91593319D02*
X203644345Y-91640938D01*
X203644345Y-91640938D02*
X203691964Y-91688557D01*
X203691964Y-91688557D02*
X203739583Y-91783795D01*
X203739583Y-91783795D02*
X203739583Y-91831414D01*
X203739583Y-91831414D02*
X203691964Y-91926652D01*
X203691964Y-91926652D02*
X203644345Y-91974271D01*
X203644345Y-91974271D02*
X203549107Y-92021890D01*
X203549107Y-92021890D02*
X203358631Y-92021890D01*
X203358631Y-92021890D02*
X203263393Y-92069509D01*
X203263393Y-92069509D02*
X203215774Y-92117128D01*
X203215774Y-92117128D02*
X203168155Y-92212366D01*
X203168155Y-92212366D02*
X203168155Y-92402842D01*
X203168155Y-92402842D02*
X203215774Y-92498080D01*
X203215774Y-92498080D02*
X203263393Y-92545700D01*
X203263393Y-92545700D02*
X203358631Y-92593319D01*
X203358631Y-92593319D02*
X203549107Y-92593319D01*
X203549107Y-92593319D02*
X203644345Y-92545700D01*
X203644345Y-92545700D02*
X203691964Y-92498080D01*
X203691964Y-92498080D02*
X203739583Y-92402842D01*
X203739583Y-92402842D02*
X203739583Y-92212366D01*
X203739583Y-92212366D02*
X203691964Y-92117128D01*
X203691964Y-92117128D02*
X203644345Y-92069509D01*
X203644345Y-92069509D02*
X203549107Y-92021890D01*
X162972917Y-73495700D02*
X163115774Y-73543319D01*
X163115774Y-73543319D02*
X163353869Y-73543319D01*
X163353869Y-73543319D02*
X163449107Y-73495700D01*
X163449107Y-73495700D02*
X163496726Y-73448080D01*
X163496726Y-73448080D02*
X163544345Y-73352842D01*
X163544345Y-73352842D02*
X163544345Y-73257604D01*
X163544345Y-73257604D02*
X163496726Y-73162366D01*
X163496726Y-73162366D02*
X163449107Y-73114747D01*
X163449107Y-73114747D02*
X163353869Y-73067128D01*
X163353869Y-73067128D02*
X163163393Y-73019509D01*
X163163393Y-73019509D02*
X163068155Y-72971890D01*
X163068155Y-72971890D02*
X163020536Y-72924271D01*
X163020536Y-72924271D02*
X162972917Y-72829033D01*
X162972917Y-72829033D02*
X162972917Y-72733795D01*
X162972917Y-72733795D02*
X163020536Y-72638557D01*
X163020536Y-72638557D02*
X163068155Y-72590938D01*
X163068155Y-72590938D02*
X163163393Y-72543319D01*
X163163393Y-72543319D02*
X163401488Y-72543319D01*
X163401488Y-72543319D02*
X163544345Y-72590938D01*
X163877679Y-72543319D02*
X164115774Y-73543319D01*
X164115774Y-73543319D02*
X164306250Y-72829033D01*
X164306250Y-72829033D02*
X164496726Y-73543319D01*
X164496726Y-73543319D02*
X164734822Y-72543319D01*
X165639583Y-73543319D02*
X165068155Y-73543319D01*
X165353869Y-73543319D02*
X165353869Y-72543319D01*
X165353869Y-72543319D02*
X165258631Y-72686176D01*
X165258631Y-72686176D02*
X165163393Y-72781414D01*
X165163393Y-72781414D02*
X165068155Y-72829033D01*
X157274819Y-100638094D02*
X156274819Y-100638094D01*
X156274819Y-100638094D02*
X156274819Y-100399999D01*
X156274819Y-100399999D02*
X156322438Y-100257142D01*
X156322438Y-100257142D02*
X156417676Y-100161904D01*
X156417676Y-100161904D02*
X156512914Y-100114285D01*
X156512914Y-100114285D02*
X156703390Y-100066666D01*
X156703390Y-100066666D02*
X156846247Y-100066666D01*
X156846247Y-100066666D02*
X157036723Y-100114285D01*
X157036723Y-100114285D02*
X157131961Y-100161904D01*
X157131961Y-100161904D02*
X157227200Y-100257142D01*
X157227200Y-100257142D02*
X157274819Y-100399999D01*
X157274819Y-100399999D02*
X157274819Y-100638094D01*
X156608152Y-99209523D02*
X157274819Y-99209523D01*
X156227200Y-99447618D02*
X156941485Y-99685713D01*
X156941485Y-99685713D02*
X156941485Y-99066666D01*
X156954819Y-96351904D02*
X155954819Y-96351904D01*
X156954819Y-95780476D02*
X156383390Y-96209047D01*
X155954819Y-95780476D02*
X156526247Y-96351904D01*
X182022917Y-73495700D02*
X182165774Y-73543319D01*
X182165774Y-73543319D02*
X182403869Y-73543319D01*
X182403869Y-73543319D02*
X182499107Y-73495700D01*
X182499107Y-73495700D02*
X182546726Y-73448080D01*
X182546726Y-73448080D02*
X182594345Y-73352842D01*
X182594345Y-73352842D02*
X182594345Y-73257604D01*
X182594345Y-73257604D02*
X182546726Y-73162366D01*
X182546726Y-73162366D02*
X182499107Y-73114747D01*
X182499107Y-73114747D02*
X182403869Y-73067128D01*
X182403869Y-73067128D02*
X182213393Y-73019509D01*
X182213393Y-73019509D02*
X182118155Y-72971890D01*
X182118155Y-72971890D02*
X182070536Y-72924271D01*
X182070536Y-72924271D02*
X182022917Y-72829033D01*
X182022917Y-72829033D02*
X182022917Y-72733795D01*
X182022917Y-72733795D02*
X182070536Y-72638557D01*
X182070536Y-72638557D02*
X182118155Y-72590938D01*
X182118155Y-72590938D02*
X182213393Y-72543319D01*
X182213393Y-72543319D02*
X182451488Y-72543319D01*
X182451488Y-72543319D02*
X182594345Y-72590938D01*
X182927679Y-72543319D02*
X183165774Y-73543319D01*
X183165774Y-73543319D02*
X183356250Y-72829033D01*
X183356250Y-72829033D02*
X183546726Y-73543319D01*
X183546726Y-73543319D02*
X183784822Y-72543319D01*
X184594345Y-72876652D02*
X184594345Y-73543319D01*
X184356250Y-72495700D02*
X184118155Y-73209985D01*
X184118155Y-73209985D02*
X184737202Y-73209985D01*
%TO.C,U1*%
D12*
X156710000Y-68209000D02*
X156710000Y-51064000D01*
X158615000Y-70114000D02*
X172585000Y-70114000D01*
X161105000Y-49159000D02*
X161108728Y-48248728D01*
X161608728Y-47749000D02*
X169604000Y-47749000D01*
X170104000Y-48249000D02*
X170104000Y-49159000D01*
D13*
X172585000Y-49159000D02*
X158615000Y-49159000D01*
D12*
X172585000Y-49159000D02*
X158615000Y-49159000D01*
X174490000Y-68209000D02*
X174490000Y-51064000D01*
X156710000Y-51064000D02*
G75*
G02*
X158615000Y-49159000I1905001J-1D01*
G01*
X158615000Y-70114000D02*
G75*
G02*
X156710000Y-68209000I1J1905001D01*
G01*
X161108728Y-48248728D02*
G75*
G02*
X161608728Y-47749001I500018J-291D01*
G01*
X169604000Y-47749000D02*
G75*
G02*
X170104000Y-48249000I0J-500000D01*
G01*
X172585000Y-49159000D02*
G75*
G02*
X174490000Y-51064000I0J-1905000D01*
G01*
X174490000Y-68209000D02*
G75*
G02*
X172585000Y-70114000I-1905000J0D01*
G01*
D14*
X156902000Y-49400000D02*
G75*
G02*
X156398000Y-49400000I-252000J0D01*
G01*
X156398000Y-49400000D02*
G75*
G02*
X156902000Y-49400000I252000J0D01*
G01*
X158045000Y-50280000D02*
G75*
G02*
X157541000Y-50280000I-252000J0D01*
G01*
X157541000Y-50280000D02*
G75*
G02*
X158045000Y-50280000I252000J0D01*
G01*
%TO.C,SW3*%
D15*
X157321250Y-112077500D02*
X171291250Y-112077500D01*
X157321250Y-126047500D02*
X157321250Y-112077500D01*
X171291250Y-112077500D02*
X171291250Y-126047500D01*
X171291250Y-126047500D02*
X157321250Y-126047500D01*
%TO.C,D5*%
X154800000Y-116330000D02*
X154800000Y-116980000D01*
X154800000Y-121870000D02*
X154800000Y-121220000D01*
X155920000Y-117580000D02*
X153680000Y-117580000D01*
X155920000Y-117700000D02*
X153680000Y-117700000D01*
X155920000Y-117820000D02*
X153680000Y-117820000D01*
X153680000Y-116980000D02*
X155920000Y-116980000D01*
X155920000Y-121220000D01*
X153680000Y-121220000D01*
X153680000Y-116980000D01*
%TO.C,D6*%
X173700000Y-97330000D02*
X173700000Y-97980000D01*
X173700000Y-102870000D02*
X173700000Y-102220000D01*
X174820000Y-98580000D02*
X172580000Y-98580000D01*
X174820000Y-98700000D02*
X172580000Y-98700000D01*
X174820000Y-98820000D02*
X172580000Y-98820000D01*
X172580000Y-97980000D02*
X174820000Y-97980000D01*
X174820000Y-102220000D01*
X172580000Y-102220000D01*
X172580000Y-97980000D01*
%TO.C,D9*%
X193000000Y-115130000D02*
X193000000Y-115780000D01*
X193000000Y-120670000D02*
X193000000Y-120020000D01*
X194120000Y-116380000D02*
X191880000Y-116380000D01*
X194120000Y-116500000D02*
X191880000Y-116500000D01*
X194120000Y-116620000D02*
X191880000Y-116620000D01*
X191880000Y-115780000D02*
X194120000Y-115780000D01*
X194120000Y-120020000D01*
X191880000Y-120020000D01*
X191880000Y-115780000D01*
%TO.C,SW9*%
X195421250Y-112077500D02*
X209391250Y-112077500D01*
X195421250Y-126047500D02*
X195421250Y-112077500D01*
X209391250Y-112077500D02*
X209391250Y-126047500D01*
X209391250Y-126047500D02*
X195421250Y-126047500D01*
%TO.C,SW6*%
X176371250Y-112077500D02*
X190341250Y-112077500D01*
X176371250Y-126047500D02*
X176371250Y-112077500D01*
X190341250Y-112077500D02*
X190341250Y-126047500D01*
X190341250Y-126047500D02*
X176371250Y-126047500D01*
%TO.C,SW7*%
X195421250Y-73977500D02*
X209391250Y-73977500D01*
X195421250Y-87947500D02*
X195421250Y-73977500D01*
X209391250Y-73977500D02*
X209391250Y-87947500D01*
X209391250Y-87947500D02*
X195421250Y-87947500D01*
%TO.C,D2*%
X172680000Y-83080000D02*
X174920000Y-83080000D01*
X172680000Y-83200000D02*
X174920000Y-83200000D01*
X172680000Y-83320000D02*
X174920000Y-83320000D01*
X173800000Y-79030000D02*
X173800000Y-79680000D01*
X173800000Y-84570000D02*
X173800000Y-83920000D01*
X172680000Y-79680000D02*
X174920000Y-79680000D01*
X174920000Y-83920000D01*
X172680000Y-83920000D01*
X172680000Y-79680000D01*
%TO.C,SW2*%
X157321250Y-93027500D02*
X171291250Y-93027500D01*
X157321250Y-106997500D02*
X157321250Y-93027500D01*
X171291250Y-93027500D02*
X171291250Y-106997500D01*
X171291250Y-106997500D02*
X157321250Y-106997500D01*
%TO.C,D8*%
X191880000Y-101680000D02*
X194120000Y-101680000D01*
X191880000Y-101800000D02*
X194120000Y-101800000D01*
X191880000Y-101920000D02*
X194120000Y-101920000D01*
X193000000Y-97630000D02*
X193000000Y-98280000D01*
X193000000Y-103170000D02*
X193000000Y-102520000D01*
X191880000Y-98280000D02*
X194120000Y-98280000D01*
X194120000Y-102520000D01*
X191880000Y-102520000D01*
X191880000Y-98280000D01*
%TO.C,D7*%
X173800000Y-114930000D02*
X173800000Y-115580000D01*
X173800000Y-120470000D02*
X173800000Y-119820000D01*
X174920000Y-116180000D02*
X172680000Y-116180000D01*
X174920000Y-116300000D02*
X172680000Y-116300000D01*
X174920000Y-116420000D02*
X172680000Y-116420000D01*
X172680000Y-115580000D02*
X174920000Y-115580000D01*
X174920000Y-119820000D01*
X172680000Y-119820000D01*
X172680000Y-115580000D01*
%TO.C,D1*%
X153680000Y-82480000D02*
X155920000Y-82480000D01*
X153680000Y-82600000D02*
X155920000Y-82600000D01*
X153680000Y-82720000D02*
X155920000Y-82720000D01*
X154800000Y-78430000D02*
X154800000Y-79080000D01*
X154800000Y-83970000D02*
X154800000Y-83320000D01*
X153680000Y-79080000D02*
X155920000Y-79080000D01*
X155920000Y-83320000D01*
X153680000Y-83320000D01*
X153680000Y-79080000D01*
%TO.C,D3*%
X191780000Y-83280000D02*
X194020000Y-83280000D01*
X191780000Y-83400000D02*
X194020000Y-83400000D01*
X191780000Y-83520000D02*
X194020000Y-83520000D01*
X192900000Y-79230000D02*
X192900000Y-79880000D01*
X192900000Y-84770000D02*
X192900000Y-84120000D01*
X191780000Y-79880000D02*
X194020000Y-79880000D01*
X194020000Y-84120000D01*
X191780000Y-84120000D01*
X191780000Y-79880000D01*
%TO.C,SW10*%
X190628994Y-52733539D02*
X191228994Y-52733539D01*
X190928994Y-53033539D02*
X190628994Y-52733539D01*
X191228994Y-52733539D02*
X190928994Y-53033539D01*
X192328994Y-50933539D02*
X192328994Y-62733539D01*
X196428994Y-50933539D02*
X192328994Y-50933539D01*
X196428994Y-62733539D02*
X192328994Y-62733539D01*
X197928994Y-56833539D02*
X198928994Y-56833539D01*
X198428994Y-56333539D02*
X198428994Y-57333539D01*
X200428994Y-50933539D02*
X204528994Y-50933539D01*
X204528994Y-50933539D02*
X204528994Y-53333539D01*
X204528994Y-55533539D02*
X204528994Y-58133539D01*
X204528994Y-60333539D02*
X204528994Y-62733539D01*
X204528994Y-62733539D02*
X200428994Y-62733539D01*
X201428994Y-56833539D02*
G75*
G02*
X195428994Y-56833539I-3000000J0D01*
G01*
X195428994Y-56833539D02*
G75*
G02*
X201428994Y-56833539I3000000J0D01*
G01*
%TO.C,SW5*%
X176371250Y-93027500D02*
X190341250Y-93027500D01*
X176371250Y-106997500D02*
X176371250Y-93027500D01*
X190341250Y-93027500D02*
X190341250Y-106997500D01*
X190341250Y-106997500D02*
X176371250Y-106997500D01*
%TO.C,SW8*%
X195421250Y-93027500D02*
X209391250Y-93027500D01*
X195421250Y-106997500D02*
X195421250Y-93027500D01*
X209391250Y-93027500D02*
X209391250Y-106997500D01*
X209391250Y-106997500D02*
X195421250Y-106997500D01*
%TO.C,SW1*%
X157321250Y-73977500D02*
X171291250Y-73977500D01*
X157321250Y-87947500D02*
X157321250Y-73977500D01*
X171291250Y-73977500D02*
X171291250Y-87947500D01*
X171291250Y-87947500D02*
X157321250Y-87947500D01*
%TO.C,D4*%
X154700000Y-97130000D02*
X154700000Y-97780000D01*
X154700000Y-102670000D02*
X154700000Y-102020000D01*
X155820000Y-98380000D02*
X153580000Y-98380000D01*
X155820000Y-98500000D02*
X153580000Y-98500000D01*
X155820000Y-98620000D02*
X153580000Y-98620000D01*
X153580000Y-97780000D02*
X155820000Y-97780000D01*
X155820000Y-102020000D01*
X153580000Y-102020000D01*
X153580000Y-97780000D01*
%TO.C,SW4*%
X176371250Y-73977500D02*
X190341250Y-73977500D01*
X176371250Y-87947500D02*
X176371250Y-73977500D01*
X190341250Y-73977500D02*
X190341250Y-87947500D01*
X190341250Y-87947500D02*
X176371250Y-87947500D01*
%TD*%
M02*
