%TF.GenerationSoftware,KiCad,Pcbnew,10.0.4*%
%TF.CreationDate,2026-06-29T21:24:16+01:00*%
%TF.ProjectId,rauqaza3x3PCB,72617571-617a-4613-9378-335043422e6b,rev?*%
%TF.SameCoordinates,Original*%
%TF.FileFunction,Copper,L2,Bot*%
%TF.FilePolarity,Positive*%
%FSLAX46Y46*%
G04 Gerber Fmt 4.6, Leading zero omitted, Abs format (unit mm)*
G04 Created by KiCad (PCBNEW 10.0.4) date 2026-06-29 21:24:16*
%MOMM*%
%LPD*%
G01*
G04 APERTURE LIST*
G04 Aperture macros list*
%AMRoundRect*
0 Rectangle with rounded corners*
0 $1 Rounding radius*
0 $2 $3 $4 $5 $6 $7 $8 $9 X,Y pos of 4 corners*
0 Add a 4 corners polygon primitive as box body*
4,1,4,$2,$3,$4,$5,$6,$7,$8,$9,$2,$3,0*
0 Add four circle primitives for the rounded corners*
1,1,$1+$1,$2,$3*
1,1,$1+$1,$4,$5*
1,1,$1+$1,$6,$7*
1,1,$1+$1,$8,$9*
0 Add four rect primitives between the rounded corners*
20,1,$1+$1,$2,$3,$4,$5,0*
20,1,$1+$1,$4,$5,$6,$7,0*
20,1,$1+$1,$6,$7,$8,$9,0*
20,1,$1+$1,$8,$9,$2,$3,0*%
G04 Aperture macros list end*
%TA.AperFunction,ComponentPad*%
%ADD10C,1.524000*%
%TD*%
%TA.AperFunction,ComponentPad*%
%ADD11C,2.200000*%
%TD*%
%TA.AperFunction,ComponentPad*%
%ADD12RoundRect,0.250000X-0.550000X0.550000X-0.550000X-0.550000X0.550000X-0.550000X0.550000X0.550000X0*%
%TD*%
%TA.AperFunction,ComponentPad*%
%ADD13C,1.600000*%
%TD*%
%TA.AperFunction,ComponentPad*%
%ADD14RoundRect,0.250000X0.550000X-0.550000X0.550000X0.550000X-0.550000X0.550000X-0.550000X-0.550000X0*%
%TD*%
%TA.AperFunction,ComponentPad*%
%ADD15R,2.000000X2.000000*%
%TD*%
%TA.AperFunction,ComponentPad*%
%ADD16C,2.000000*%
%TD*%
%TA.AperFunction,ComponentPad*%
%ADD17C,3.200000*%
%TD*%
%TA.AperFunction,Conductor*%
%ADD18C,0.200000*%
%TD*%
G04 APERTURE END LIST*
D10*
%TO.P,U1,1,GPIO26/ADC0/A0*%
%TO.N,Net-(U1-GPIO26{slash}ADC0{slash}A0)*%
X157980000Y-52080000D03*
%TO.P,U1,2,GPIO27/ADC1/A1*%
%TO.N,Net-(U1-GPIO27{slash}ADC1{slash}A1)*%
X157980000Y-54620000D03*
%TO.P,U1,3,GPIO28/ADC2/A2*%
%TO.N,Net-(U1-GPIO28{slash}ADC2{slash}A2)*%
X157980000Y-57160000D03*
%TO.P,U1,4,GPIO29/ADC3/A3*%
%TO.N,COL1*%
X157980000Y-59700000D03*
%TO.P,U1,5,GPIO6/SDA*%
%TO.N,COL2*%
X157980000Y-62240000D03*
%TO.P,U1,6,GPIO7/SCL*%
%TO.N,COL3*%
X157980000Y-64780000D03*
%TO.P,U1,7,GPIO0/TX*%
%TO.N,unconnected-(U1-GPIO0{slash}TX-Pad7)*%
X157980000Y-67320000D03*
%TO.P,U1,8,GPIO1/RX*%
%TO.N,unconnected-(U1-GPIO1{slash}RX-Pad8)*%
X173220000Y-67320000D03*
%TO.P,U1,9,GPIO2/SCK*%
%TO.N,ROW3*%
X173220000Y-64780000D03*
%TO.P,U1,10,GPIO4/MISO*%
%TO.N,ROW2*%
X173220000Y-62240000D03*
%TO.P,U1,11,GPIO3/MOSI*%
%TO.N,ROW1*%
X173220000Y-59700000D03*
%TO.P,U1,12,3V3*%
%TO.N,unconnected-(U1-3V3-Pad12)*%
X173220000Y-57160000D03*
%TO.P,U1,13,GND*%
%TO.N,GND*%
X173220000Y-54620000D03*
%TO.P,U1,14,VBUS*%
%TO.N,+5V*%
X173220000Y-52080000D03*
%TD*%
D11*
%TO.P,SW3,1,1*%
%TO.N,COL3*%
X166846250Y-113982500D03*
%TO.P,SW3,2,2*%
%TO.N,Net-(D5-A)*%
X160496250Y-116522500D03*
%TD*%
D12*
%TO.P,D5,1,K*%
%TO.N,ROW1*%
X154800000Y-115290000D03*
D13*
%TO.P,D5,2,A*%
%TO.N,Net-(D5-A)*%
X154800000Y-122910000D03*
%TD*%
D12*
%TO.P,D6,1,K*%
%TO.N,ROW2*%
X173700000Y-96290000D03*
D13*
%TO.P,D6,2,A*%
%TO.N,Net-(D6-A)*%
X173700000Y-103910000D03*
%TD*%
D12*
%TO.P,D9,1,K*%
%TO.N,ROW3*%
X193000000Y-114090000D03*
D13*
%TO.P,D9,2,A*%
%TO.N,Net-(D9-A)*%
X193000000Y-121710000D03*
%TD*%
D11*
%TO.P,SW9,1,1*%
%TO.N,COL3*%
X204946250Y-113982500D03*
%TO.P,SW9,2,2*%
%TO.N,Net-(D9-A)*%
X198596250Y-116522500D03*
%TD*%
%TO.P,SW6,1,1*%
%TO.N,COL3*%
X185896250Y-113982500D03*
%TO.P,SW6,2,2*%
%TO.N,Net-(D7-A)*%
X179546250Y-116522500D03*
%TD*%
%TO.P,SW7,1,1*%
%TO.N,COL1*%
X204946250Y-75882500D03*
%TO.P,SW7,2,2*%
%TO.N,Net-(D3-A)*%
X198596250Y-78422500D03*
%TD*%
D14*
%TO.P,D2,1,K*%
%TO.N,ROW2*%
X173800000Y-85610000D03*
D13*
%TO.P,D2,2,A*%
%TO.N,Net-(D2-A)*%
X173800000Y-77990000D03*
%TD*%
D11*
%TO.P,SW2,1,1*%
%TO.N,COL2*%
X166846250Y-94932500D03*
%TO.P,SW2,2,2*%
%TO.N,Net-(D4-A)*%
X160496250Y-97472500D03*
%TD*%
D14*
%TO.P,D8,1,K*%
%TO.N,ROW3*%
X193000000Y-104210000D03*
D13*
%TO.P,D8,2,A*%
%TO.N,Net-(D8-A)*%
X193000000Y-96590000D03*
%TD*%
D12*
%TO.P,D7,1,K*%
%TO.N,ROW2*%
X173800000Y-113890000D03*
D13*
%TO.P,D7,2,A*%
%TO.N,Net-(D7-A)*%
X173800000Y-121510000D03*
%TD*%
D14*
%TO.P,D1,1,K*%
%TO.N,ROW1*%
X154800000Y-85010000D03*
D13*
%TO.P,D1,2,A*%
%TO.N,Net-(D1-A)*%
X154800000Y-77390000D03*
%TD*%
D14*
%TO.P,D3,1,K*%
%TO.N,ROW3*%
X192900000Y-85810000D03*
D13*
%TO.P,D3,2,A*%
%TO.N,Net-(D3-A)*%
X192900000Y-78190000D03*
%TD*%
D15*
%TO.P,SW10,A,A*%
%TO.N,Net-(U1-GPIO28{slash}ADC2{slash}A2)*%
X190928994Y-54333539D03*
D16*
%TO.P,SW10,B,B*%
%TO.N,Net-(U1-GPIO27{slash}ADC1{slash}A1)*%
X190928994Y-59333539D03*
%TO.P,SW10,C,C*%
%TO.N,GND*%
X190928994Y-56833539D03*
D17*
%TO.P,SW10,MP*%
%TO.N,N/C*%
X198428994Y-51233539D03*
X198428994Y-62433539D03*
D16*
%TO.P,SW10,S1,S1*%
%TO.N,Net-(U1-GPIO26{slash}ADC0{slash}A0)*%
X205428994Y-59333539D03*
%TO.P,SW10,S2,S2*%
%TO.N,GND*%
X205428994Y-54333539D03*
%TD*%
D11*
%TO.P,SW5,1,1*%
%TO.N,COL2*%
X185896250Y-94932500D03*
%TO.P,SW5,2,2*%
%TO.N,Net-(D6-A)*%
X179546250Y-97472500D03*
%TD*%
%TO.P,SW8,1,1*%
%TO.N,COL2*%
X204946250Y-94932500D03*
%TO.P,SW8,2,2*%
%TO.N,Net-(D8-A)*%
X198596250Y-97472500D03*
%TD*%
%TO.P,SW1,1,1*%
%TO.N,COL1*%
X166846250Y-75882500D03*
%TO.P,SW1,2,2*%
%TO.N,Net-(D1-A)*%
X160496250Y-78422500D03*
%TD*%
D12*
%TO.P,D4,1,K*%
%TO.N,ROW1*%
X154700000Y-96090000D03*
D13*
%TO.P,D4,2,A*%
%TO.N,Net-(D4-A)*%
X154700000Y-103710000D03*
%TD*%
D11*
%TO.P,SW4,1,1*%
%TO.N,COL1*%
X185896250Y-75882500D03*
%TO.P,SW4,2,2*%
%TO.N,Net-(D2-A)*%
X179546250Y-78422500D03*
%TD*%
%TO.N,GND*%
D18*
X188715455Y-54620000D02*
X190928994Y-56833539D01*
X173220000Y-54620000D02*
X188715455Y-54620000D01*
X202928994Y-56833539D02*
X190928994Y-56833539D01*
X205428994Y-54333539D02*
X202928994Y-56833539D01*
%TO.N,Net-(D1-A)*%
X159463750Y-77390000D02*
X160496250Y-78422500D01*
X154800000Y-77390000D02*
X159463750Y-77390000D01*
%TO.N,ROW2*%
X172599000Y-112689000D02*
X173800000Y-113890000D01*
X173700000Y-96290000D02*
X172599000Y-97391000D01*
X173700000Y-96290000D02*
X173700000Y-85710000D01*
X173700000Y-85710000D02*
X173800000Y-85610000D01*
X172599000Y-97391000D02*
X172599000Y-112689000D01*
%TO.N,Net-(D2-A)*%
X173800000Y-77990000D02*
X179113750Y-77990000D01*
X179113750Y-77990000D02*
X179546250Y-78422500D01*
%TO.N,Net-(D4-A)*%
X154700000Y-102578630D02*
X159806130Y-97472500D01*
X154700000Y-103710000D02*
X154700000Y-102578630D01*
X159806130Y-97472500D02*
X160496250Y-97472500D01*
%TO.N,Net-(D6-A)*%
X176077220Y-103910000D02*
X179546250Y-100440970D01*
X173700000Y-103910000D02*
X176077220Y-103910000D01*
X179546250Y-100440970D02*
X179546250Y-97472500D01*
%TO.N,Net-(D7-A)*%
X173800000Y-121510000D02*
X178787500Y-116522500D01*
X178787500Y-116522500D02*
X179546250Y-116522500D01*
%TO.N,COL1*%
X185896250Y-75882500D02*
X204946250Y-75882500D01*
X166846250Y-75882500D02*
X185896250Y-75882500D01*
%TO.N,Net-(U1-GPIO27{slash}ADC1{slash}A1)*%
X187692455Y-56097000D02*
X190928994Y-59333539D01*
X159457000Y-56097000D02*
X187692455Y-56097000D01*
X157980000Y-54620000D02*
X159457000Y-56097000D01*
%TD*%
M02*
