M48
; DRILL file KiCad 10.0.4 date 2026-06-29T21:24:29
; FORMAT={-:-/ absolute / metric / decimal}
; #@! TF.CreationDate,2026-06-29T21:24:29+01:00
; #@! TF.GenerationSoftware,Kicad,Pcbnew,10.0.4
; #@! TF.FileFunction,NonPlated,1,2,NPTH
FMAT,2
METRIC
; #@! TA.AperFunction,NonPlated,NPTH,ComponentDrill
T1C1.700
; #@! TA.AperFunction,NonPlated,NPTH,ComponentDrill
T2C4.000
%
G90
G05
T1
X159.226Y-80.962
X159.226Y-100.012
X159.226Y-119.062
X169.386Y-80.962
X169.386Y-100.012
X169.386Y-119.062
X178.276Y-80.962
X178.276Y-100.012
X178.276Y-119.062
X188.436Y-80.962
X188.436Y-100.012
X188.436Y-119.062
X197.326Y-80.962
X197.326Y-100.012
X197.326Y-119.062
X207.486Y-80.962
X207.486Y-100.012
X207.486Y-119.062
T2
X164.306Y-80.962
X164.306Y-100.012
X164.306Y-119.062
X183.356Y-80.962
X183.356Y-100.012
X183.356Y-119.062
X202.406Y-80.962
X202.406Y-100.012
X202.406Y-119.062
M30
